<?xml version="1.0" encoding="UTF-8" standalone="no"?>
<!DOCTYPE svg PUBLIC "-//W3C//DTD SVG 1.1//EN" "http://www.w3.org/Graphics/SVG/1.1/DTD/svg11.dtd">
<svg version="1.1" xmlns="http://www.w3.org/2000/svg" xmlns:xlink="http://www.w3.org/1999/xlink" preserveAspectRatio="xMidYMid meet" viewBox="0 0 300 300" width="300" height="300"><defs><path d="M239 87.63C245.67 87.63 249 90.96 249 97.63C249 156.43 249 189.1 249 195.63C249 202.3 245.67 205.63 239 205.63C132.2 205.63 72.87 205.63 61 205.63C54.33 205.63 51 202.3 51 195.63C51 136.83 51 104.16 51 97.63C51 90.96 54.33 87.63 61 87.63C167.8 87.63 227.13 87.63 239 87.63Z" id="cM5QIoqe2"></path><path d="M76 180.63L76 112.63L96 112.63L116 137.63L136 112.63L156 112.63L156 180.63L136 180.63L136 141.63L116 166.63L96 141.63L96 180.63L76 180.63Z" id="a4t5GNjh3B"></path><path d="M201 180.63L171 147.63L191 147.63L191 112.63L211 112.63L211 147.63L231 147.63L201 180.63Z" id="a1xaRbPJt"></path></defs><g><g><g><use xlink:href="#cM5QIoqe2" opacity="1" fill="#000000" fill-opacity="0"></use><g><use xlink:href="#cM5QIoqe2" opacity="1" fill-opacity="0" stroke="#000000" stroke-width="10" stroke-opacity="1"></use></g></g><g><use xlink:href="#a4t5GNjh3B" opacity="1" fill="#000000" fill-opacity="1"></use><g><use xlink:href="#a4t5GNjh3B" opacity="1" fill-opacity="0" stroke="#000000" stroke-width="1" stroke-opacity="0"></use></g></g><g><use xlink:href="#a1xaRbPJt" opacity="1" fill="#000000" fill-opacity="1"></use><g><use xlink:href="#a1xaRbPJt" opacity="1" fill-opacity="0" stroke="#000000" stroke-width="1" stroke-opacity="0"></use></g></g></g></g></svg>